# xmcd
#
# Track frame offsets:
#	150
#	19025
#	36180
#	55489
#	76360
#	95562
#	112775
#	134997
#	154330
#	177582
#	196352
#	210037
#	226305
#	242857
#	261430
#	279295
#
# Disc length: 3989 seconds
#
# Revision: 1
# Processed by: cddbd v1.4PL0 Copyright (c) Steve Scherf et al.
# Submitted via: audiograbber 1.80.04
#
DISCID=e10f9310
DTITLE=SPC - Só pra contrariar
DYEAR=1999
DGENRE=Samba
TTITLE0=Interfone
TTITLE1=Sai da minha aba (bicão)
TTITLE2=Machuca demais
TTITLE3=Tudo acaba em perdão
TTITLE4=Coladinhos
TTITLE5=Fazendeiros
TTITLE6=Não chora
TTITLE7=De corpo sem alma
TTITLE8=No céu da paixão
TTITLE9=Graças ao teu coração
TTITLE10=Baianeiro
TTITLE11=Coração profano
TTITLE12=O que importa é o amor
TTITLE13=Santo santo
TTITLE14=Meu segmento
TTITLE15=Fazendo paixão
EXTD=
EXTT0=
EXTT1=
EXTT2=
EXTT3=
EXTT4=
EXTT5=
EXTT6=
EXTT7=
EXTT8=
EXTT9=
EXTT10=
EXTT11=
EXTT12=
EXTT13=
EXTT14=
EXTT15=
PLAYORDER=
